#!OML:ASF F:\VICON\USERDATA\INSTALL\rory3\rory3.ASF
:FULLY-SPECIFIED
:DEGREES
39
root -0.127118 18.1274 48.6598 176.451 1.48452 -178.062
lowerback 20.3734 -3.16134 0.0508898
upperback 2.80973 -2.93636 4.97127
thorax -8.06207 -1.02156 6.1541
lowerneck -5.44252 -2.17153 -2.42916
upperneck 31.3219 3.45166 -8.14717
head 11.1827 1.64288 -1.93996
rclavicle -3.69739e-014 -5.88403e-014
rhumerus -24.7169 -36.88 -40.9617
rradius 101.565
rwrist -12.3009
rhand -15.1594 7.49059
rfingers 7.12502
rthumb 11.011 -22.2006
lclavicle -3.69739e-014 -5.88403e-014
lhumerus -46.6852 8.03086 79.1647
lradius 48.0575
lwrist 7.71008
lhand -9.09186 52.018
lfingers 7.12502
lthumb 16.858 81.3062
rfemur -4.30115 3.30439 25.469
rtibia 33.3995
rfoot -23.0004 -15.9116
rtoes 6.41438
lfemur -15.4083 -9.43049 -17.6177
ltibia 49.0105
lfoot -12.5642 5.31843
ltoes -9.1543
40
root -0.129152 18.1239 48.6261 176.469 1.77067 -178.021
lowerback 20.317 -3.02113 0.572528
upperback 3.37629 -2.60224 4.8166
thorax -7.47935 -0.865627 5.55818
lowerneck -6.91215 -2.23704 -1.93844
upperneck 31.3911 3.18534 -8.21296
head 11.4934 1.46742 -2.09159
rclavicle 1.39149e-015 5.24792e-014
rhumerus -24.2881 -35.7572 -42.8436
rradius 102.773
rwrist -8.97153
rhand -16.1155 8.13964
rfingers 7.12502
rthumb 10.0887 -21.5985
lclavicle 1.39149e-015 5.24792e-014
lhumerus -45.4177 7.44024 79.6033
lradius 47.9017
lwrist 7.58205
lhand -8.96691 52.3802
lfingers 7.12502
lthumb 16.9783 81.6581
rfemur -4.10116 3.51606 25.5381
rtibia 33.2463
rfoot -23.206 -15.955
rtoes 5.77465
lfemur -16.328 -9.14167 -17.6579
ltibia 50.4172
lfoot -12.6683 5.4077
ltoes -10.6067
41
root -0.129324 18.1234 48.5948 176.47 2.14074 -177.719
lowerback 20.4875 -3.16051 0.657783
upperback 3.02958 -2.73313 5.12892
thorax -7.92758 -0.919761 5.91951
lowerneck -5.01738 -2.14699 -2.36007
upperneck 30.7542 3.45191 -8.53472
head 10.8839 1.62016 -2.08871
rclavicle 4.13472e-014 3.81667e-014
rhumerus -24.1668 -32.1458 -44.3566
rradius 103.677
rwrist -5.69482
rhand -17.2241 8.94362
rfingers 7.12502
rthumb 9.01909 -20.8436
lclavicle 4.13472e-014 3.81667e-014
lhumerus -46.7105 8.13523 79.7361
lradius 47.9903
lwrist 7.31758
lhand -8.94063 51.2392
lfingers 7.12502
lthumb 17.0036 80.515
rfemur -3.893 3.81021 25.9417
rtibia 33.0687
rfoot -23.2025 -16.1638
rtoes 5.11141
lfemur -17.2336 -8.74933 -17.3521
ltibia 51.7136
lfoot -13.001 4.9368
ltoes -10.1454
42
root -0.126152 18.124 48.5661 176.548 2.34632 -177.34
lowerback 20.6345 -2.9529 1.54274
upperback 3.60033 -2.20611 4.98221
thorax -7.47642 -0.664832 5.08571
lowerneck -6.71007 -2.42754 -1.79044
upperneck 31.0036 2.77216 -8.28902
head 11.2781 1.27931 -2.18977
rclavicle 4.21423e-014 -1.31993e-013
rhumerus -23.9628 -31.2718 -46.128
rradius 104.404
rwrist -2.26187
rhand -18.2531 9.5738
rfingers 7.12502
rthumb 8.02609 -20.2538
lclavicle 4.21423e-014 -1.31993e-013
lhumerus -45.1304 7.09212 80.1358
lradius 47.58
lwrist 7.03461
lhand -9.02982 51.7232
lfingers 7.12502
lthumb 16.9177 81.0063
rfemur -3.7591 4.02828 26.4468
rtibia 32.8891
rfoot -23.1501 -16.4831
rtoes 4.36614
lfemur -18.2886 -8.37781 -16.9182
ltibia 52.8754
lfoot -13.0352 4.32945
ltoes -9.24322
43
root -0.121772 18.1207 48.5431 176.523 2.31883 -177.314
lowerback 20.8094 -3.19751 1.45655
upperback 3.63707 -2.49078 5.17738
thorax -7.49442 -0.784696 5.43414
lowerneck -6.14224 -2.26243 -2.13967
upperneck 30.6058 3.06797 -8.4698
head 11.0289 1.38089 -2.15303
rclavicle 1.74931e-014 -4.29375e-014
rhumerus -23.2465 -28.1622 -48.0671
rradius 104.699
rwrist 1.22982
rhand -19.3946 10.3937
rfingers 7.12502
rthumb 6.92422 -19.4731
lclavicle 1.74931e-014 -4.29375e-014
lhumerus -45.3198 7.76661 80.3335
lradius 47.4017
lwrist 6.70077
lhand -9.00418 51.5747
lfingers 7.12502
lthumb 16.9424 80.8557
rfemur -3.50973 4.00007 26.5122
rtibia 32.6693
rfoot -23.235 -16.566
rtoes 4.67064
lfemur -19.2141 -8.29707 -16.9221
ltibia 53.7676
lfoot -13.0148 3.83773
ltoes -8.77832
44
root -0.11968 18.1138 48.5226 176.383 2.33248 -177.327
lowerback 21.1528 -3.32211 1.52239
upperback 3.78202 -2.58673 5.2006
thorax -7.51254 -0.815757 5.46081
lowerneck -5.97093 -2.17504 -2.14173
upperneck 30.3518 3.15769 -8.5652
head 10.902 1.4124 -2.1746
rclavicle 4.77083e-015 3.65764e-014
rhumerus -22.8531 -25.4009 -49.9382
rradius 104.685
rwrist 4.60539
rhand -21.0175 11.049
rfingers 7.12502
rthumb 5.35743 -18.8633
lclavicle 4.77083e-015 3.65764e-014
lhumerus -45.1207 7.84385 80.5851
lradius 47.2624
lwrist 6.73944
lhand -8.89491 51.7836
lfingers 7.12502
lthumb 17.0476 81.0556
rfemur -3.16182 3.93114 26.5243
rtibia 32.5037
rfoot -23.478 -16.6063
rtoes 4.77109
lfemur -19.9623 -8.12312 -16.9831
ltibia 54.4696
lfoot -13.0463 3.29728
ltoes -9.11211
45
root -0.139518 18.1226 48.4459 176.605 3.48993 -177.326
lowerback 20.7628 -2.9971 1.91137
upperback 4.00321 -2.11017 5.09334
thorax -7.12344 -0.600667 4.95806
lowerneck -6.22363 -2.22061 -1.98469
upperneck 30.3177 3.04659 -8.62467
head 10.9339 1.35192 -2.23811
rclavicle -4.29375e-014 2.54444e-014
rhumerus -22.7598 -22.9529 -51.6103
rradius 104.377
rwrist 7.7612
rhand -22.7391 11.6722
rfingers 7.12502
rthumb 3.69501 -18.2755
lclavicle -4.29375e-014 2.54444e-014
lhumerus -44.7298 7.63931 80.8995
lradius 47.0191
lwrist 6.61206
lhand -8.94315 51.8551
lfingers 7.12502
lthumb 17.0012 81.1311
rfemur -3.06267 4.50516 26.4227
rtibia 32.3703
rfoot -23.591 -16.337
rtoes 3.59453
lfemur -20.5533 -7.24504 -17.0951
ltibia 54.9142
lfoot -13.3612 3.37651
ltoes -9.86026
46
root -0.1408 18.1161 48.4238 176.712 3.38292 -177.22
lowerback 21.5869 -3.19733 1.61516
upperback 3.33681 -2.3511 5.54274
thorax -8.24225 -0.694496 5.77638
lowerneck -4.64547 -2.14578 -2.47476
upperneck 30.0591 3.44841 -9.06904
head 10.5558 1.5524 -2.25669
rclavicle -2.22639e-014 0
rhumerus -22.9737 -18.8851 -52.7216
rradius 103.559
rwrist 10.3613
rhand -24.2145 12.6492
rfingers 7.12502
rthumb 2.27021 -17.3184
lclavicle -2.22639e-014 0
lhumerus -46.2479 8.36156 81.3545
lradius 47.2118
lwrist 6.20317
lhand -9.05127 51.92
lfingers 7.12502
lthumb 16.8971 81.205
rfemur -2.98289 4.42047 26.5173
rtibia 32.1909
rfoot -23.7633 -16.318
rtoes 4.09856
lfemur -21.4944 -7.24383 -17.0051
ltibia 55.1933
lfoot -13.2097 2.98518
ltoes -9.45531
47
root -0.141039 18.1039 48.3975 176.775 3.44542 -177.129
lowerback 21.6617 -3.26105 1.93421
upperback 3.55197 -2.33733 5.48136
thorax -8.06384 -0.686888 5.51225
lowerneck -4.77542 -2.13387 -2.26647
upperneck 29.8428 3.34682 -9.09815
head 10.4921 1.50261 -2.31386
rclavicle 7.95139e-015 -6.04305e-014
rhumerus -22.4136 -16.6 -54.6559
rradius 102.075
rwrist 12.8075
rhand -26.4863 13.9789
rfingers 7.12502
rthumb 0.0760952 -16.0009
lclavicle 7.95139e-015 -6.04305e-014
lhumerus -45.849 8.16425 81.5534
lradius 47.1007
lwrist 5.98087
lhand -9.14725 52.027
lfingers 7.12502
lthumb 16.8047 81.3198
rfemur -2.80306 4.43371 26.6225
rtibia 31.9477
rfoot -23.7928 -16.5078
rtoes 3.33332
lfemur -22.3358 -7.12581 -16.9252
ltibia 55.2792
lfoot -13.0698 2.80105
ltoes -9.44418
48
root -0.165628 18.1153 48.3133 176.712 4.70473 -177.219
lowerback 21.4694 -2.89667 2.2171
upperback 3.94824 -1.80899 5.33492
thorax -7.5833 -0.437791 5.00845
lowerneck -5.20794 -2.20402 -2.16169
upperneck 29.794 3.16901 -9.0893
head 10.5485 1.39705 -2.35018
rclavicle -3.02153e-014 -7.95139e-015
rhumerus -21.922 -14.484 -56.283
rradius 100.168
rwrist 15.3457
rhand -28.7218 15.3749
rfingers 7.12502
rthumb -2.08307 -14.5946
lclavicle -3.02153e-014 -7.95139e-015
lhumerus -45.2668 8.1381 81.778
lradius 46.7281
lwrist 5.61151
lhand -8.841 51.8598
lfingers 7.12502
lthumb 17.0995 81.1273
rfemur -2.34419 4.8855 26.3509
rtibia 31.7265
rfoot -23.8672 -16.052
rtoes 1.45961
lfemur -22.4474 -6.3044 -17.1757
ltibia 55.0657
lfoot -13.2766 3.02499
ltoes -10.2657
49
root -0.171902 18.1242 48.2604 176.827 5.22933 -177.219
lowerback 21.6148 -2.80046 2.24529
upperback 3.91755 -1.66047 5.38959
thorax -7.70381 -0.364577 5.0209
lowerneck -4.80714 -2.20092 -2.33051
upperneck 29.5782 3.14142 -9.05152
head 10.3865 1.38786 -2.30538
rclavicle -8.74653e-015 -2.8625e-014
rhumerus -21.6402 -11.9689 -57.6214
rradius 97.933
rwrist 18.2253
rhand -30.6094 16.2514
rfingers 7.12502
rthumb -3.90592 -13.6926
lclavicle -8.74653e-015 -2.8625e-014
lhumerus -45.3454 8.46147 81.951
lradius 46.5392
lwrist 5.35431
lhand -8.69081 51.7267
lfingers 7.12502
lthumb 17.244 80.9816
rfemur -2.17786 5.06313 26.2869
rtibia 31.5517
rfoot -24.0946 -15.9493
rtoes 0.31822
lfemur -23.018 -5.88561 -17.1877
ltibia 54.6931
lfoot -13.4248 2.92155
ltoes -12.1449
